<svg width="16" height="14" viewBox="0 0 16 14" fill="none" xmlns="http://www.w3.org/2000/svg">
<path d="M0.296683 13.5383C0.49447 13.8462 0.728923 14 0.999825 14L14.9999 14C15.2709 14 15.5052 13.8462 15.7032 13.5383C15.9011 13.23 16 12.8656 16 12.4443C16 12.0231 15.9011 11.6586 15.7032 11.3506L8.70309 0.462078C8.50492 0.154168 8.27063 -6.75723e-07 7.99984 -6.99396e-07C7.72905 -7.2307e-07 7.49454 0.154168 7.29675 0.462078L0.296684 11.3507C0.0989515 11.6586 -0.000324076 12.0231 -0.000324113 12.4444C-0.00032415 12.8656 0.0989514 13.23 0.296683 13.5383Z" fill="#28A745"/>
</svg>
