<svg width="75" height="75" viewBox="0 0 75 75" fill="none" xmlns="http://www.w3.org/2000/svg">
<path d="M75 37.5C75 58.2107 58.2107 75 37.5 75C16.7893 75 0 58.2107 0 37.5C0 16.7893 16.7893 0 37.5 0C58.2107 0 75 16.7893 75 37.5Z" fill="#284E78"/>
<path d="M37.0011 34.0668C40.3629 34.0668 43.0881 31.1417 43.0881 27.5334C43.0881 23.9251 40.3629 21 37.0011 21C33.6393 21 30.9141 23.9251 30.9141 27.5334C30.9141 31.1417 33.6393 34.0668 37.0011 34.0668Z" fill="white"/>
<path d="M49.1736 37.8006C51.5749 37.8006 53.5215 35.7112 53.5215 33.1339C53.5215 30.5565 51.5749 28.4672 49.1736 28.4672C46.7724 28.4672 44.8258 30.5565 44.8258 33.1339C44.8258 35.7112 46.7724 37.8006 49.1736 37.8006Z" fill="white"/>
<path d="M24.9494 37.8006C27.3506 37.8006 29.2972 35.7112 29.2972 33.1339C29.2972 30.5565 27.3506 28.4672 24.9494 28.4672C22.5482 28.4672 20.6016 30.5565 20.6016 33.1339C20.6016 35.7112 22.5482 37.8006 24.9494 37.8006Z" fill="white"/>
<path d="M36.9998 35.9328C30.7667 35.9328 25.6953 41.3761 25.6953 48.0663C25.6953 48.5815 26.0849 48.9996 26.5649 48.9996H47.4347C47.9147 48.9996 48.3043 48.5815 48.3043 48.0663C48.3043 41.3761 43.2329 35.9328 36.9998 35.9328Z" fill="white"/>
<path d="M26.4488 39.8688C25.9166 39.7474 25.3757 39.6672 24.8262 39.6672C20.5113 39.6672 17 43.436 17 48.0673C17 48.5825 17.3896 49.0006 17.8696 49.0006H24.1166C24.0192 48.7076 23.9566 48.3958 23.9566 48.0673C23.9566 45.004 24.8888 42.176 26.4488 39.8688Z" fill="white"/>
<path d="M49.1742 39.6672C48.6246 39.6672 48.0837 39.7474 47.5516 39.8688C49.1116 42.176 50.0438 45.004 50.0438 48.0673C50.0438 48.3958 49.9812 48.7075 49.8838 49.0006H56.1307C56.6107 49.0006 57.0003 48.5825 57.0003 48.0673C57.0003 43.436 53.489 39.6672 49.1742 39.6672Z" fill="white"/>
</svg>
