<svg width="23" height="22" viewBox="0 0 23 22" fill="none" xmlns="http://www.w3.org/2000/svg">
<g clip-path="url(#clip0_1892_17296)">
<path d="M14.6207 7.9707C14.3253 7.9707 14.0859 8.20135 14.0859 8.48593V18.2236C14.0859 18.508 14.3253 18.7388 14.6207 18.7388C14.9161 18.7388 15.1555 18.508 15.1555 18.2236V8.48593C15.1555 8.20135 14.9161 7.9707 14.6207 7.9707Z" fill="#FF0000"/>
<path d="M8.31019 7.9707C8.0148 7.9707 7.77539 8.20135 7.77539 8.48593V18.2236C7.77539 18.508 8.0148 18.7388 8.31019 18.7388C8.60559 18.7388 8.84499 18.508 8.84499 18.2236V8.48593C8.84499 8.20135 8.60559 7.9707 8.31019 7.9707Z" fill="#FF0000"/>
<path d="M3.71032 6.54961V19.2436C3.71032 19.9939 3.9959 20.6985 4.49476 21.204C4.99133 21.711 5.68239 21.9988 6.40562 22H16.5242C17.2476 21.9988 17.9387 21.711 18.435 21.204C18.9339 20.6985 19.2195 19.9939 19.2195 19.2436V6.54961C20.2112 6.29603 20.8538 5.37306 20.7211 4.39273C20.5882 3.4126 19.7215 2.67942 18.6953 2.67922H15.9572V2.03519C15.9604 1.4936 15.7381 0.973553 15.3401 0.590962C14.9421 0.208571 14.4015 -0.00435998 13.8393 6.76958e-05H9.09048C8.52832 -0.00435998 7.98767 0.208571 7.5897 0.590962C7.19174 0.973553 6.96946 1.4936 6.9726 2.03519V2.67922H4.23447C3.20832 2.67942 2.34157 3.4126 2.20871 4.39273C2.07605 5.37306 2.71865 6.29603 3.71032 6.54961ZM16.5242 20.9696H6.40562C5.49124 20.9696 4.77992 20.2128 4.77992 19.2436V6.5949H18.1499V19.2436C18.1499 20.2128 17.4386 20.9696 16.5242 20.9696ZM8.04219 2.03519C8.03864 1.76691 8.14811 1.5087 8.34573 1.31931C8.54315 1.12993 8.8118 1.02588 9.09048 1.03051H13.8393C14.118 1.02588 14.3867 1.12993 14.5841 1.31931C14.7817 1.5085 14.8912 1.76691 14.8876 2.03519V2.67922H8.04219V2.03519ZM4.23447 3.70966H18.6953C19.227 3.70966 19.658 4.12485 19.658 4.63706C19.658 5.14926 19.227 5.56445 18.6953 5.56445H4.23447C3.7028 5.56445 3.27183 5.14926 3.27183 4.63706C3.27183 4.12485 3.7028 3.70966 4.23447 3.70966Z" fill="#FF0000"/>
<path d="M11.4645 7.9707C11.1691 7.9707 10.9297 8.20135 10.9297 8.48593V18.2236C10.9297 18.508 11.1691 18.7388 11.4645 18.7388C11.7599 18.7388 11.9993 18.508 11.9993 18.2236V8.48593C11.9993 8.20135 11.7599 7.9707 11.4645 7.9707Z" fill="#FF0000"/>
</g>
<defs>
<clipPath id="clip0_1892_17296">
<rect width="22.836" height="22" fill="white" transform="translate(0.0527344)"/>
</clipPath>
</defs>
</svg>
