<svg width="17" height="10" viewBox="0 0 17 10" fill="none" xmlns="http://www.w3.org/2000/svg">
<path d="M16.9371 4.79715C16.8032 4.60071 13.5859 0 8.49997 0C4.13584 0 0.247027 4.57429 0.0833994 4.76929C-0.0277998 4.90215 -0.0277998 5.09715 0.0833994 5.23071C0.247027 5.42571 4.13584 10 8.49997 10C12.8641 10 16.7529 5.42571 16.9165 5.23071C17.0192 5.10786 17.0284 4.93001 16.9371 4.79715ZM8.49997 9.28573C5.00146 9.28573 1.67505 5.92144 0.830017 5.00002C1.67366 4.07789 4.99652 0.714307 8.49997 0.714307C12.5935 0.714307 15.4828 4.0736 16.1883 4.98073C15.3737 5.87286 12.0282 9.28573 8.49997 9.28573Z" fill="black"/>
<path d="M8.50012 2.14282C6.93752 2.14282 5.66675 3.42425 5.66675 4.99995C5.66675 6.57565 6.93752 7.85708 8.50012 7.85708C10.0627 7.85708 11.3335 6.57565 11.3335 4.99995C11.3335 3.42425 10.0627 2.14282 8.50012 2.14282ZM8.50012 7.14284C7.32853 7.14284 6.37508 6.1814 6.37508 4.99998C6.37508 3.81857 7.32853 2.85713 8.50012 2.85713C9.67171 2.85713 10.6252 3.81857 10.6252 4.99998C10.6252 6.1814 9.67171 7.14284 8.50012 7.14284Z" fill="black"/>
</svg>
