<svg width="40" height="29" viewBox="0 0 40 29" fill="none" xmlns="http://www.w3.org/2000/svg">
<path d="M20.0011 13.0668C23.3629 13.0668 26.0881 10.1417 26.0881 6.53342C26.0881 2.92511 23.3629 0 20.0011 0C16.6393 0 13.9141 2.92511 13.9141 6.53342C13.9141 10.1417 16.6393 13.0668 20.0011 13.0668Z" fill="white"/>
<path d="M32.174 16.8002C34.5753 16.8002 36.5218 14.7108 36.5218 12.1335C36.5218 9.55614 34.5753 7.4668 32.174 7.4668C29.7728 7.4668 27.8262 9.55614 27.8262 12.1335C27.8262 14.7108 29.7728 16.8002 32.174 16.8002Z" fill="white"/>
<path d="M7.9494 16.8002C10.3506 16.8002 12.2972 14.7108 12.2972 12.1335C12.2972 9.55614 10.3506 7.4668 7.9494 7.4668C5.54816 7.4668 3.60156 9.55614 3.60156 12.1335C3.60156 14.7108 5.54816 16.8002 7.9494 16.8002Z" fill="white"/>
<path d="M19.9998 14.9336C13.7667 14.9336 8.69531 20.3768 8.69531 27.0671C8.69531 27.5823 9.08491 28.0004 9.56491 28.0004H30.4347C30.9147 28.0004 31.3043 27.5823 31.3043 27.0671C31.3043 20.3768 26.2329 14.9336 19.9998 14.9336Z" fill="white"/>
<path d="M9.44878 18.8696C8.9166 18.7482 8.3757 18.668 7.82616 18.668C3.51133 18.668 0 22.4368 0 27.068C0 27.5832 0.389596 28.0014 0.8696 28.0014H7.11658C7.01916 27.7084 6.95656 27.3966 6.95656 27.068C6.95656 24.0048 7.88876 21.1768 9.44878 18.8696Z" fill="white"/>
<path d="M32.1734 18.668C31.6239 18.668 31.083 18.7482 30.5508 18.8696C32.1108 21.1768 33.043 24.0048 33.043 27.068C33.043 27.3966 32.9804 27.7083 32.883 28.0014H39.13C39.61 28.0014 39.9996 27.5832 39.9996 27.068C39.9996 22.4368 36.4882 18.668 32.1734 18.668Z" fill="white"/>
</svg>
