<svg width="305" height="73" viewBox="0 0 305 73" fill="none" xmlns="http://www.w3.org/2000/svg">
<path d="M19.2858 43.2141C20.2655 41.0727 21.4465 39.7005 23 39.5C29.3162 38.6847 35.0676 41.5209 36.1345 42.7665C42.9629 49.6738 56.9609 63.5565 58.3266 63.8283C60.0337 64.168 66.2218 66.8856 69.4226 65.3569C72.6234 63.8283 82.4391 57.3739 86.7068 47.8622C90.9745 38.3506 107.619 6.24865 109.539 5.22954C111.46 4.21044 116.581 -0.885106 120.422 0.134003C124.263 1.15311 132.371 5.73912 138.773 15.5905C145.174 25.4419 159.898 52.9578 167.366 52.6181C173.341 52.3463 177.68 49.3343 179.103 47.8623C183.655 42.88 194.04 32.7455 199.161 32.0661C205.562 31.2168 215.592 31.047 221.993 31.5565C228.395 32.0661 236.077 28.3294 241.625 29.0088C247.173 29.6882 252.507 31.5565 259.122 38.5204C265.737 45.4844 275.553 57.5438 283.448 58.2232C291.343 58.9026 288.569 60.771 305 56.3548V73H11.0165L5 69.5L2.5 66.5L1.50082 64.5L0.5 63V62L9 54L14 48.5L19.2858 43.2141Z" fill="url(#paint0_linear_2598_13768)" fill-opacity="0.52"/>
<defs>
<linearGradient id="paint0_linear_2598_13768" x1="153" y1="-15.5" x2="153" y2="73" gradientUnits="userSpaceOnUse">
<stop stop-color="#284E78"/>
<stop offset="1" stop-color="#0D6EFD" stop-opacity="0"/>
</linearGradient>
</defs>
</svg>
