<svg width="306" height="74" viewBox="0 0 306 74" fill="none" xmlns="http://www.w3.org/2000/svg">
<path d="M19.2858 44.2141C20.2655 42.0727 21.4465 40.7005 23 40.5C29.3162 39.6847 35.0676 42.5209 36.1345 43.7665C42.9629 50.6738 56.9609 64.5565 58.3266 64.8283C60.0337 65.168 66.2218 67.8856 69.4226 66.3569C72.6234 64.8283 82.4391 58.3739 86.7068 48.8622C90.9745 39.3506 107.619 7.24865 109.539 6.22954C111.46 5.21044 116.581 0.114894 120.422 1.134C124.263 2.15311 132.371 6.73912 138.773 16.5905C145.174 26.4419 159.898 53.9578 167.366 53.6181C173.341 53.3463 177.68 50.3343 179.103 48.8623C183.655 43.88 194.04 33.7455 199.161 33.0661C205.562 32.2168 215.592 32.047 221.993 32.5565C228.395 33.0661 236.077 29.3294 241.625 30.0088C247.173 30.6882 252.507 32.5565 259.122 39.5204C265.737 46.4844 275.553 58.5438 283.448 59.2232C291.343 59.9026 288.569 61.771 305 57.3548V74H11.0165L5 70.5L2.5 67.5L1.50082 65.5L0.5 64V63L9 55L14 49.5L19.2858 44.2141Z" fill="url(#paint0_linear_3688_230)" fill-opacity="0.52"/>
<path d="M1 63.5L8.5 55.5C14.5 49 18.4847 40.7804 27.7272 40.4458C36.9696 40.1112 46.212 56.0519 55.4544 62.8641C64.6969 69.6763 73.9393 67.3601 83.1817 53.4765C92.4241 39.5929 101.667 14.1419 110.909 5.04419C120.151 -4.05356 129.394 3.20196 138.636 16.8226C147.879 30.4433 157.121 50.4291 166.364 53.0464C175.606 55.6637 184.848 40.9126 194.091 35.2753C203.333 29.6381 212.576 33.1146 221.818 32.5393C231.06 31.9639 240.303 27.3367 249.545 32.0571C258.788 36.7774 268.03 50.8455 277.273 56.5543C286.515 62.2631 295.757 59.6127 300.379 58.2874L305 56.9622" stroke="#284E78" stroke-width="2"/>
<defs>
<linearGradient id="paint0_linear_3688_230" x1="153" y1="-14.5" x2="153" y2="74" gradientUnits="userSpaceOnUse">
<stop stop-color="#284E78"/>
<stop offset="1" stop-color="#0D6EFD" stop-opacity="0"/>
</linearGradient>
</defs>
</svg>
