<svg width="71" height="71" viewBox="0 0 71 71" fill="none" xmlns="http://www.w3.org/2000/svg">
<path d="M61.405 32.7961C63.4842 31.3351 64.8609 28.9048 64.8609 26.1653C64.8609 21.6839 61.2364 18.0595 56.755 18.0595C52.2736 18.0595 48.6492 21.6839 48.6492 26.1653C48.6492 28.9048 50.0119 31.3351 52.1051 32.7961C50.3209 33.4143 48.6913 34.3695 47.3146 35.6058C45.4181 33.9902 43.1844 32.754 40.74 32.0235C43.7042 30.2253 45.699 26.952 45.699 23.2293C45.699 17.5537 41.1053 12.96 35.4298 12.96C29.7543 12.96 25.1605 17.5678 25.1605 23.2293C25.1605 26.952 27.1413 30.2253 30.1195 32.0235C27.7032 32.754 25.4976 33.9762 23.6152 35.5636C22.2384 34.3555 20.6369 33.4143 18.8809 32.8102C20.96 31.3492 22.3368 28.9188 22.3368 26.1794C22.3368 21.698 18.7123 18.0735 14.2309 18.0735C9.74951 18.0735 6.12505 21.698 6.12505 26.1794C6.12505 28.9188 7.48773 31.3492 9.58093 32.8102C4.00376 34.7348 0 40.031 0 46.2544V47.1816C0 47.2097 0.0280966 47.2378 0.0561931 47.2378H17.2372C17.1389 48.0104 17.0827 48.8112 17.0827 49.6119V50.5672C17.0827 54.6974 20.4262 58.0409 24.5564 58.0409H46.3312C50.4614 58.0409 53.8049 54.6974 53.8049 50.5672V49.6119C53.8049 48.8112 53.7487 48.0104 53.6504 47.2378H70.9438C70.9719 47.2378 71 47.2097 71 47.1816V46.2544C70.9719 40.0169 66.9822 34.7207 61.405 32.7961ZM50.8969 26.1513C50.8969 22.9202 53.5239 20.2932 56.755 20.2932C59.9861 20.2932 62.6132 22.9202 62.6132 26.1513C62.6132 29.3403 60.0423 31.9392 56.8674 32.0094C56.8253 32.0094 56.7972 32.0094 56.755 32.0094C56.7129 32.0094 56.6848 32.0094 56.6427 32.0094C53.4537 31.9532 50.8969 29.3543 50.8969 26.1513ZM27.3801 23.2293C27.3801 18.804 30.9765 15.2077 35.4017 15.2077C39.8269 15.2077 43.4232 18.804 43.4232 23.2293C43.4232 27.4999 40.0657 30.998 35.8653 31.2368C35.7107 31.2368 35.5562 31.2368 35.4017 31.2368C35.2471 31.2368 35.0926 31.2368 34.9381 31.2368C30.7376 30.998 27.3801 27.4999 27.3801 23.2293ZM8.33063 26.1513C8.33063 22.9202 10.9577 20.2932 14.1888 20.2932C17.4199 20.2932 20.0469 22.9202 20.0469 26.1513C20.0469 29.3403 17.4761 31.9392 14.3011 32.0094C14.259 32.0094 14.2309 32.0094 14.1888 32.0094C14.1466 32.0094 14.1185 32.0094 14.0764 32.0094C10.9015 31.9532 8.33063 29.3543 8.33063 26.1513ZM17.6306 44.976H2.27582C2.90799 38.9914 7.96537 34.2993 14.1045 34.2572C14.1326 34.2572 14.1607 34.2572 14.1888 34.2572C14.2169 34.2572 14.245 34.2572 14.2731 34.2572C17.1951 34.2712 19.8643 35.3529 21.9294 37.109C19.9064 39.3005 18.4032 41.9978 17.6306 44.976ZM51.5291 50.5672C51.5291 53.4471 49.183 55.7932 46.3031 55.7932H24.5283C21.6484 55.7932 19.3023 53.4471 19.3023 50.5672V49.6119C19.3023 40.8879 26.2703 33.7514 34.9381 33.4985C35.0926 33.5126 35.2612 33.5126 35.4157 33.5126C35.5702 33.5126 35.7388 33.5126 35.8934 33.4985C44.5611 33.7514 51.5291 40.8879 51.5291 49.6119V50.5672V50.5672ZM53.2008 44.976C52.4282 42.0118 50.9531 39.3567 48.9442 37.1651C51.0233 35.367 53.7206 34.2852 56.6708 34.2572C56.6989 34.2572 56.7269 34.2572 56.755 34.2572C56.7831 34.2572 56.8112 34.2572 56.8393 34.2572C62.9784 34.2993 68.0358 38.9914 68.668 44.976H53.2008Z" fill="white"/>
</svg>
